<svg width="24" height="24" viewBox="0 0 24 24" fill="none" xmlns="http://www.w3.org/2000/svg">
<path d="M12.001 17.25C9.106 17.25 6.751 14.895 6.751 12C6.751 9.105 9.106 6.75 12.001 6.75C14.896 6.75 17.251 9.105 17.251 12C17.251 14.895 14.896 17.25 12.001 17.25ZM12.001 8.25C9.933 8.25 8.251 9.932 8.251 12C8.251 14.068 9.933 15.75 12.001 15.75C14.069 15.75 15.751 14.068 15.751 12C15.751 9.932 14.069 8.25 12.001 8.25Z" fill="white"/>
<path d="M12.001 5.25C11.587 5.25 11.251 4.914 11.251 4.5V1.5C11.251 1.086 11.587 0.75 12.001 0.75C12.415 0.75 12.751 1.086 12.751 1.5V4.5C12.751 4.914 12.415 5.25 12.001 5.25Z" fill="white"/>
<path d="M12.001 23.25C11.587 23.25 11.251 22.914 11.251 22.5V19.5C11.251 19.086 11.587 18.75 12.001 18.75C12.415 18.75 12.751 19.086 12.751 19.5V22.5C12.751 22.914 12.415 23.25 12.001 23.25Z" fill="white"/>
<path d="M19.501 12.75C19.087 12.75 18.751 12.414 18.751 12C18.751 11.586 19.087 11.25 19.501 11.25H22.501C22.915 11.25 23.251 11.586 23.251 12C23.251 12.414 22.915 12.75 22.501 12.75H19.501Z" fill="white"/>
<path d="M1.501 12.75C1.087 12.75 0.750999 12.414 0.750999 12C0.750999 11.586 1.087 11.25 1.501 11.25H4.501C4.915 11.25 5.251 11.586 5.251 12C5.251 12.414 4.915 12.75 4.501 12.75H1.501Z" fill="white"/>
<path d="M17.304 7.447C17.104 7.447 16.915 7.369 16.774 7.227C16.632 7.085 16.554 6.897 16.554 6.697C16.554 6.497 16.632 6.308 16.774 6.167L18.895 4.046C19.037 3.904 19.225 3.826 19.425 3.826C19.625 3.826 19.814 3.904 19.955 4.046C20.097 4.188 20.175 4.376 20.175 4.576C20.175 4.776 20.097 4.965 19.955 5.106L17.834 7.227C17.693 7.369 17.504 7.447 17.304 7.447Z" fill="white"/>
<path d="M4.576 20.175C4.376 20.175 4.187 20.097 4.046 19.955C3.754 19.663 3.754 19.187 4.046 18.894L6.167 16.773C6.309 16.631 6.497 16.553 6.697 16.553C6.897 16.553 7.086 16.631 7.227 16.773C7.519 17.065 7.519 17.541 7.227 17.834L5.106 19.955C4.965 20.097 4.776 20.175 4.576 20.175Z" fill="white"/>
<path d="M19.425 20.175C19.225 20.175 19.036 20.097 18.895 19.955L16.774 17.834C16.482 17.542 16.482 17.066 16.774 16.773C16.916 16.631 17.104 16.553 17.304 16.553C17.504 16.553 17.693 16.631 17.834 16.773L19.955 18.894C20.247 19.186 20.247 19.662 19.955 19.955C19.814 20.097 19.625 20.175 19.425 20.175Z" fill="white"/>
<path d="M6.697 7.447C6.497 7.447 6.308 7.369 6.167 7.227L4.046 5.106C3.904 4.965 3.826 4.776 3.826 4.576C3.826 4.376 3.904 4.187 4.046 4.046C4.188 3.904 4.376 3.826 4.576 3.826C4.776 3.826 4.965 3.904 5.106 4.046L7.227 6.167C7.369 6.308 7.447 6.497 7.447 6.697C7.447 6.897 7.369 7.086 7.227 7.227C7.086 7.369 6.897 7.447 6.697 7.447Z" fill="white"/>
</svg>
