<svg width="457" height="457" viewBox="0 0 457 457" fill="none" xmlns="http://www.w3.org/2000/svg">
<path d="M229 341C290.602 341 341 290.602 341 229C341 167.398 290.602 117 229 117C167.398 117 117 167.398 117 229C117 290.602 167.398 341 229 341ZM229 150.6C272.121 150.6 307.398 185.881 307.398 228.998C307.398 272.119 272.117 307.396 229 307.396C185.879 307.396 150.602 272.115 150.602 228.998C150.602 185.877 185.879 150.6 229 150.6V150.6Z" fill="white"/>
<path d="M212.2 381.32H245.802V456.922H212.2V381.32Z" fill="white"/>
<path d="M212.2 0.519989H245.802V76.122H212.2V0.519989Z" fill="white"/>
<path d="M0.519989 212.2H76.122V245.802H0.519989V212.2Z" fill="white"/>
<path d="M381.32 212.2H456.922V245.802H381.32V212.2Z" fill="white"/>
<path d="M55.56 378.35L109.017 324.893L132.775 348.651L79.318 402.108L55.56 378.35Z" fill="white"/>
<path d="M325.22 109.35L378.677 55.893L402.435 79.651L348.978 133.108L325.22 109.35Z" fill="white"/>
<path d="M55.89 79.32L79.648 55.562L133.105 109.019L109.347 132.777L55.89 79.32Z" fill="white"/>
<path d="M324.89 348.98L348.648 325.222L402.105 378.679L378.347 402.437L324.89 348.98Z" fill="white"/>
</svg>
