<svg width="446" height="452" viewBox="0 0 446 452" fill="none" xmlns="http://www.w3.org/2000/svg">
<path d="M424.11 272.55C411.52 275.14 398.692 276.429 385.837 276.398C334.802 276.343 285.872 256.046 249.787 219.957C213.697 183.867 193.4 134.937 193.342 83.8967C193.276 63.4397 196.569 43.1077 203.092 23.7167C205.084 17.7948 203.772 11.2637 199.651 6.5717C195.526 1.8803 189.213 -0.256395 183.089 0.966205C130.597 11.5952 83.5376 40.4042 50.1986 82.3182C16.8586 124.232 -0.62539 176.564 0.82361 230.108C2.27671 283.643 22.5656 334.958 58.1286 374.998C93.6916 415.038 142.242 441.26 195.229 449.033C248.221 456.803 302.249 445.631 347.819 417.478C393.381 389.33 427.553 346.005 444.315 295.138C446.264 289.205 444.901 282.677 440.737 278.017C436.572 273.357 430.237 271.275 424.12 272.548L424.11 272.55ZM228.34 416.4C183.098 416.447 139.281 400.552 104.59 371.509C69.899 342.466 46.543 302.134 38.625 257.589C30.707 213.042 38.7344 167.132 61.297 127.909C83.856 88.69 119.512 58.675 161.997 43.124C154.04 86.979 159.134 132.206 176.642 173.194C194.154 214.182 223.31 249.128 260.497 273.694C297.685 298.264 341.267 311.374 385.837 311.401C390.579 311.401 395.321 311.26 399.993 310.964H399.997C383.977 342.734 359.442 369.417 329.126 388.038C298.81 406.659 263.915 416.479 228.336 416.401L228.34 416.4Z" fill="black"/>
</svg>
