<svg width="24" height="24" viewBox="0 0 24 24" fill="none" xmlns="http://www.w3.org/2000/svg">
<path d="M16.0258 23.3046C9.79224 25.5244 2.91531 22.2593 0.695436 16.0258C-1.52443 9.79223 1.74072 2.9153 7.97425 0.695433C9.5842 0.122098 11.2641 -0.0939843 12.9661 0.0503721C13.3564 0.0971415 13.6764 0.339864 13.8135 0.685945C14.0192 1.20712 13.7633 1.79715 13.2431 2.00259C8.55017 3.67489 6.0958 8.83428 7.76079 13.5097C9.42578 18.185 14.5832 20.6338 19.2585 18.9688C19.2651 18.9664 19.284 18.9597 19.2909 18.9583C19.6382 18.8484 20.0246 18.938 20.2924 19.1951C20.4879 19.3834 20.599 19.6357 20.6042 19.9067C20.6094 20.1776 20.5086 20.4343 20.3213 20.6295C19.0771 21.8337 17.6357 22.7312 16.0258 23.3046ZM8.47747 2.1085C3.02301 4.05093 0.166079 10.0681 2.10851 15.5225C4.05094 20.977 10.0681 23.8339 15.5225 21.8915C16.2376 21.6369 16.9156 21.3083 17.5503 20.9114C12.7399 21.5237 8.02713 18.7288 6.34772 14.0129C4.66797 9.29605 6.55425 4.15108 10.6701 1.58561C9.92747 1.67918 9.19342 1.85354 8.47747 2.1085Z" fill="black"/>
<path d="M16.4425 8.82566C16.0525 8.96455 15.6233 8.76074 15.4844 8.37074L15.2328 7.6642L14.5262 7.91581C14.1362 8.0547 13.707 7.85089 13.5681 7.46088C13.4292 7.07088 13.633 6.64163 14.023 6.50274L14.7296 6.25113L14.4779 5.54459C14.3391 5.15459 14.5429 4.72534 14.9329 4.58645C15.3229 4.44756 15.7521 4.65137 15.891 5.04137L16.1426 5.74791L16.8492 5.4963C17.2392 5.35741 17.6684 5.56122 17.8073 5.95123C17.9462 6.34123 17.7424 6.77048 17.3524 6.90937L16.6458 7.16098L16.8975 7.86752C17.0363 8.25752 16.8325 8.68677 16.4425 8.82566Z" fill="black"/>
<path d="M22.6946 12.9683C22.3046 13.1072 21.8754 12.9034 21.7365 12.5134L21.4849 11.8068L20.7783 12.0584C20.3883 12.1973 19.9591 11.9935 19.8202 11.6035C19.6813 11.2135 19.8851 10.7843 20.2751 10.6454L20.9816 10.3938L20.73 9.68722C20.5911 9.29721 20.795 8.86796 21.185 8.72907C21.575 8.59018 22.0042 8.79399 22.1431 9.184L22.3947 9.89053L23.1013 9.63892C23.4913 9.50003 23.9205 9.70384 24.0594 10.0938C24.1983 10.4839 23.9945 10.9131 23.6045 11.052L22.8979 11.3036L23.1495 12.0101C23.2884 12.4001 23.0846 12.8294 22.6946 12.9683Z" fill="black"/>
<path d="M16.1325 16.8975C15.7425 17.0363 15.3132 16.8325 15.1743 16.4425L14.9227 15.736L14.2162 15.9876C13.8262 16.1265 13.3969 15.9227 13.258 15.5327C13.1192 15.1427 13.323 14.7134 13.713 14.5745L14.4195 14.3229L14.1679 13.6164C14.029 13.2264 14.2328 12.7971 14.6228 12.6582C15.0128 12.5194 15.4421 12.7232 15.581 13.1132L15.8326 13.8197L16.5391 13.5681C16.9291 13.4292 17.3584 13.633 17.4973 14.023C17.6362 14.413 17.4323 14.8423 17.0423 14.9812L16.3358 15.2328L16.5874 15.9393C16.7263 16.3293 16.5225 16.7586 16.1325 16.8975Z" fill="black"/>
</svg>
