<svg viewBox="0 0 24 24" xmlns="http://www.w3.org/2000/svg"><g stroke-linecap="round" stroke-width="1.5" stroke="#818a9b" fill="none" stroke-linejoin="round"><path d="M5 19.251v1 0c-.02.39.22.75.58.88l6.911 2.11v-8.84l-6.48-2.38v-.001c-.44-.12-.89.13-1.01.57 -.03.09-.04.19-.03.3v1.84"/><path d="M20.013 19.1v1.157 0c.01.39-.22.75-.59.88l-6.93 2.1v-8.84l6.48-2.38 0-.001c.43-.12.88.13 1 .57 .02.09.03.19.02.3v1.98"/><path d="M6.487 18.358c0 .5-.57.9-1.26.89 -1.38-.01-2.5-.82-2.49-1.81v-.9c0-1 1.125-1.8 2.5-1.79 .68 0 1.245.4 1.24.9Z"/><path d="M17.757 18.358c0 .5.56.9 1.25.89 1.38-.01 2.49-.82 2.49-1.81v-.9c0-1-1.13-1.8-2.51-1.79 -.69 0-1.25.4-1.25.9Z"/><path d="M12.51.75a4.125 4.125 0 1 0 0 8.25 4.125 4.125 0 1 0 0-8.25Z"/></g></svg>
